<svg width="1249" height="699" viewBox="0 0 1249 699" fill="none" xmlns="http://www.w3.org/2000/svg">
<path d="M64.74 595.567C65.2066 594.994 64.9118 594.13 64.1922 593.962L49.1348 590.44C48.37 590.261 47.707 590.993 47.9607 591.737L53.2545 607.25C53.5082 607.993 54.4805 608.167 54.9764 607.558L64.74 595.567Z" fill="#45B5AA"/>
<path d="M833.74 123.567C834.207 122.994 833.912 122.13 833.192 121.962L818.135 118.44C817.37 118.261 816.707 118.993 816.961 119.737L822.255 135.25C822.508 135.993 823.48 136.167 823.976 135.558L833.74 123.567Z" fill="#45B5AA"/>
<path d="M250.752 154.845C251.414 154.519 251.506 153.611 250.922 153.158L238.7 143.684C238.08 143.203 237.172 143.593 237.093 144.374L235.443 160.682C235.364 161.464 236.176 162.027 236.88 161.68L250.752 154.845Z" fill="#45B5AA"/>
<g opacity="0.6">
<path d="M673.5 599C676.538 599 679 596.538 679 593.5C679 590.462 676.538 588 673.5 588C670.462 588 668 590.462 668 593.5C668 596.538 670.462 599 673.5 599Z" fill="#45B5AA"/>
<rect x="676" y="580" width="3" height="13" fill="#45B5AA"/>
<rect x="676" y="577" width="11" height="6" rx="2" fill="#45B5AA"/>
</g>
<g opacity="0.6">
<path d="M1233.5 87C1236.54 87 1239 84.5376 1239 81.5C1239 78.4624 1236.54 76 1233.5 76C1230.46 76 1228 78.4624 1228 81.5C1228 84.5376 1230.46 87 1233.5 87Z" fill="#45B5AA"/>
<rect x="1236" y="68" width="3" height="13" fill="#45B5AA"/>
<rect x="1236" y="65" width="11" height="6" rx="2" fill="#45B5AA"/>
</g>
<g opacity="0.6">
<path d="M512.5 23C515.538 23 518 20.5376 518 17.5C518 14.4624 515.538 12 512.5 12C509.462 12 507 14.4624 507 17.5C507 20.5376 509.462 23 512.5 23Z" fill="#45B5AA"/>
<rect x="515" y="4" width="3" height="13" fill="#45B5AA"/>
<rect x="515" y="1" width="11" height="6" rx="2" fill="#45B5AA"/>
</g>
<circle cx="352.5" cy="693.5" r="5.5" fill="#45B5AA"/>
<circle cx="5.5" cy="59.5" r="5.5" fill="#45B5AA"/>
<circle cx="498.5" cy="438.5" r="5.5" fill="#8FD1CB"/>
</svg>
