<svg width="954" height="375" viewBox="0 0 954 375" fill="none" xmlns="http://www.w3.org/2000/svg">
<path d="M172.512 226.72C172.512 233.44 173.568 238.336 175.68 241.408C177.984 244.48 180.48 246.496 183.168 247.456C186.24 248.608 189.792 248.8 193.824 248.032C193.632 249.76 192.672 251.392 190.944 252.928C189.216 254.464 186.912 255.904 184.032 257.248C181.344 258.592 178.272 259.648 174.816 260.416C171.552 261.184 168.192 261.568 164.736 261.568C161.472 261.568 158.208 261.184 154.944 260.416C151.872 259.456 149.088 258.016 146.592 256.096C144.288 253.984 142.368 251.296 140.832 248.032C139.488 244.768 138.816 240.736 138.816 235.936V96.832L87.552 223.84L72.288 261.568C71.712 261.568 71.04 261.472 70.272 261.28C69.504 261.088 68.64 260.608 67.68 259.84C66.72 258.88 65.664 257.44 64.512 255.52C63.36 253.6 62.112 250.816 60.768 247.168L5.76 111.232C5.76 111.04 5.664 110.848 5.472 110.656C5.088 110.464 4.8 109.888 4.608 108.928V219.808C4.608 224.8 5.568 228.928 7.488 232.192C9.6 235.264 11.808 237.952 14.112 240.256C16.608 242.368 19.008 244.288 21.312 246.016C23.616 247.744 25.056 249.568 25.632 251.488C26.208 253.216 25.152 255.136 22.464 257.248C19.776 259.168 16.8 260.512 13.536 261.28C10.272 261.856 7.2 261.472 4.32 260.128C1.44 258.592 0 255.328 0 250.336V102.016C0 97.024 1.536 92.896 4.608 89.632C7.68 86.176 11.424 84.448 15.84 84.448C21.024 84.448 25.632 86.272 29.664 89.92C33.696 93.376 37.536 99.712 41.184 108.928L84.96 217.792L131.616 102.304C133.344 97.888 135.552 93.856 138.24 90.208C141.12 86.368 145.44 84.448 151.2 84.448C157.728 84.448 162.912 86.848 166.752 91.648C170.592 96.256 172.512 102.4 172.512 110.08V226.72ZM250.081 160.192C259.105 160.192 267.457 163.168 275.137 169.12C282.817 174.88 288.961 183.712 293.569 195.616L231.361 224.416C234.049 229.792 237.121 234.592 240.577 238.816C244.033 242.848 247.585 246.112 251.233 248.608C255.457 251.872 259.297 253.6 262.753 253.792C266.401 253.792 269.473 253.024 271.969 251.488C274.657 249.952 276.769 247.936 278.305 245.44C280.033 242.752 281.185 240.448 281.761 238.528C284.065 238.336 285.601 238.72 286.369 239.68C287.137 240.448 287.329 241.504 286.945 242.848C286.753 244.192 286.177 245.632 285.217 247.168C284.449 248.512 283.585 249.568 282.625 250.336C279.169 253.408 274.657 256.096 269.089 258.4C263.713 260.512 257.761 261.568 251.233 261.568H250.081C243.169 261.568 236.641 260.32 230.497 257.824C224.545 255.136 219.265 251.488 214.657 246.88C210.049 242.272 206.401 236.992 203.713 231.04C201.217 224.896 199.969 218.368 199.969 211.456V210.304C199.969 203.392 201.217 196.96 203.713 191.008C206.401 184.864 210.049 179.584 214.657 175.168C219.265 170.56 224.545 166.912 230.497 164.224C236.641 161.536 243.169 160.192 250.081 160.192ZM246.625 212.32C252.001 209.824 256.033 207.136 258.721 204.256C261.409 201.376 262.945 198.496 263.329 195.616C263.713 192.736 263.137 189.856 261.601 186.976C260.257 183.904 258.241 180.928 255.553 178.048C251.137 173.632 246.913 170.56 242.881 168.832C238.849 167.104 235.105 167.104 231.649 168.832L230.209 169.408C227.521 170.752 225.409 173.056 223.873 176.32C222.529 179.584 221.761 183.52 221.569 188.128C221.377 192.544 221.857 197.44 223.009 202.816C224.353 208.192 226.273 213.568 228.769 218.944L229.345 220.384L246.625 212.32ZM688.482 234.208C688.482 241.696 689.442 247.264 691.362 250.912C693.474 254.368 696.162 256.096 699.426 256.096C695.778 258.592 692.418 260.128 689.346 260.704C686.274 261.28 683.586 261.568 681.282 261.568C670.722 261.568 663.33 258.208 659.106 251.488C656.418 254.368 653.442 256.768 650.178 258.688C646.914 260.608 643.362 261.568 639.522 261.568C632.226 261.568 625.698 260.224 619.938 257.536C614.178 254.656 609.57 250.72 606.114 245.728C603.234 250.144 599.778 253.888 595.746 256.96C591.714 260.032 587.202 261.568 582.21 261.568C569.922 261.568 560.034 257.92 552.546 250.624C545.25 243.328 541.602 233.152 541.602 220.096V187.84C541.602 180.16 540.834 174.592 539.298 171.136C537.954 167.68 535.938 165.952 533.25 165.952C535.938 163.264 538.434 161.632 540.738 161.056C543.234 160.48 545.346 160.192 547.074 160.192C553.794 160.192 558.882 162.4 562.338 166.816C565.794 171.232 567.522 178.336 567.522 188.128V234.208C567.522 241.504 568.962 247.168 571.842 251.2C574.914 255.04 578.37 256.96 582.21 256.96C585.666 256.96 589.218 255.136 592.866 251.488C596.706 247.648 599.586 242.656 601.506 236.512C599.778 231.712 598.914 226.24 598.914 220.096V187.84C598.914 180.16 598.146 174.592 596.61 171.136C595.266 167.68 593.25 165.952 590.562 165.952C593.25 163.264 595.746 161.632 598.05 161.056C600.546 160.48 602.658 160.192 604.386 160.192C611.106 160.192 616.194 162.4 619.65 166.816C623.106 171.232 624.834 178.336 624.834 188.128V234.208C624.834 241.504 626.274 247.168 629.154 251.2C632.226 255.04 635.682 256.96 639.522 256.96C642.21 256.96 645.09 255.808 648.162 253.504C651.234 251.008 653.826 247.648 655.938 243.424C655.554 241.888 655.266 240.352 655.074 238.816C654.882 237.28 654.786 235.552 654.786 233.632V187.84C654.786 180.16 653.826 174.592 651.906 171.136C649.986 167.68 647.394 165.952 644.13 165.952C647.778 163.264 651.138 161.632 654.21 161.056C657.282 160.48 659.874 160.192 661.986 160.192C670.626 160.192 677.154 162.4 681.57 166.816C686.178 171.232 688.482 178.336 688.482 188.128V234.208ZM824.882 90.208C821.618 90.208 818.93 91.936 816.818 95.392C814.898 98.848 813.938 104.416 813.938 112.096V234.208C813.938 241.696 814.898 247.264 816.818 250.912C818.93 254.368 821.618 256.096 824.882 256.096C821.234 258.592 817.874 260.128 814.802 260.704C811.73 261.28 809.042 261.568 806.738 261.568C796.754 261.568 789.65 258.592 785.426 252.64C781.394 255.328 776.978 257.536 772.178 259.264C767.378 260.8 762.386 261.568 757.202 261.568H756.05C749.138 261.568 742.61 260.32 736.466 257.824C730.514 255.136 725.234 251.488 720.626 246.88C716.018 242.272 712.37 236.992 709.682 231.04C707.186 224.896 705.938 218.368 705.938 211.456V210.304C705.938 203.392 707.186 196.96 709.682 191.008C712.37 184.864 716.018 179.584 720.626 175.168C725.234 170.56 730.514 166.912 736.466 164.224C742.61 161.536 749.138 160.192 756.05 160.192H757.202C761.426 160.192 765.458 160.768 769.298 161.92C773.138 162.88 776.786 164.32 780.242 166.24V112.384C780.242 102.592 782.45 95.488 786.866 91.072C791.474 86.656 798.098 84.448 806.738 84.448C809.042 84.448 811.73 84.736 814.802 85.312C817.874 85.888 821.234 87.52 824.882 90.208ZM739.634 210.88C739.634 220.48 740.978 228.448 743.666 234.784C746.354 240.928 749.714 245.536 753.746 248.608C757.97 251.488 762.578 252.736 767.57 252.352C772.562 251.968 777.458 250.048 782.258 246.592C781.682 244.864 781.202 242.944 780.818 240.832C780.434 238.72 780.242 236.32 780.242 233.632V180.064C780.242 176.8 778.706 174.208 775.634 172.288C772.562 170.368 769.394 169.408 766.13 169.408C759.026 169.408 752.786 172.864 747.41 179.776C742.226 186.496 739.634 196.864 739.634 210.88ZM909.545 160.192C918.185 160.192 924.713 162.4 929.129 166.816C933.545 171.232 935.753 178.336 935.753 188.128V300.736C935.753 313.792 930.953 323.968 921.353 331.264C911.945 338.56 899.177 342.208 883.049 342.208C876.905 342.208 871.721 341.152 867.497 339.04C863.273 336.928 859.721 334.432 856.841 331.552C853.577 328.096 851.465 324.544 850.505 320.896C849.737 317.44 849.737 314.272 850.505 311.392C851.465 308.512 852.905 306.112 854.825 304.192C856.937 302.272 859.241 301.312 861.737 301.312C861.737 306.304 862.313 311.008 863.465 315.424C864.617 320.032 866.153 323.968 868.073 327.232C869.993 330.496 872.201 333.088 874.697 335.008C877.385 336.928 880.169 337.888 883.049 337.888C888.041 337.888 892.457 335.584 896.297 330.976C900.329 326.56 902.344 320.032 902.344 311.392V251.488C899.273 254.368 895.913 256.768 892.265 258.688C888.617 260.608 884.777 261.568 880.745 261.568C866.921 261.568 855.881 257.92 847.625 250.624C839.561 243.328 835.529 233.152 835.529 220.096V187.84C835.529 180.16 834.665 174.592 832.937 171.136C831.401 167.68 829.193 165.952 826.312 165.952C829.577 163.264 832.457 161.632 834.953 161.056C837.449 160.48 839.753 160.192 841.865 160.192C849.161 160.192 854.729 162.4 858.569 166.816C862.409 171.232 864.328 178.336 864.328 188.128V234.208C864.328 241.504 865.961 247.168 869.225 251.2C872.681 255.04 876.521 256.96 880.745 256.96C882.665 256.96 884.873 256.288 887.369 254.944C889.865 253.6 892.169 251.776 894.281 249.472C896.585 246.976 898.505 243.904 900.041 240.256C901.577 236.608 902.344 232.48 902.344 227.872C902.344 215.2 902.249 205.504 902.057 198.784C902.057 191.872 902.057 188.224 902.057 187.84C902.057 180.16 901.097 174.592 899.177 171.136C897.257 167.68 894.665 165.952 891.401 165.952C895.049 163.264 898.409 161.632 901.481 161.056C904.553 160.48 907.241 160.192 909.545 160.192Z" fill="black"/>
<path d="M350.408 207.208C350.408 214.696 351.368 220.264 353.288 223.912C355.4 227.368 358.088 229.096 361.352 229.096C357.704 231.592 354.344 233.128 351.272 233.704C348.2 234.28 345.512 234.568 343.208 234.568C334.568 234.568 328.04 232.36 323.624 227.944C319.208 223.528 317 216.424 317 206.632V85.096C317 77.416 316.04 71.848 314.12 68.392C312.008 64.936 309.32 63.208 306.056 63.208C309.704 60.52 313.064 58.888 316.136 58.312C319.208 57.736 321.896 57.448 324.2 57.448C332.84 57.448 339.368 59.656 343.784 64.072C348.2 68.488 350.408 75.592 350.408 85.384V207.208ZM401.314 207.208C401.314 214.696 402.274 220.264 404.194 223.912C406.306 227.368 408.994 229.096 412.258 229.096C408.61 231.592 405.25 233.128 402.178 233.704C399.106 234.28 396.418 234.568 394.114 234.568C385.474 234.568 378.946 232.36 374.53 227.944C370.114 223.528 367.906 216.424 367.906 206.632V85.096C367.906 77.416 366.946 71.848 365.026 68.392C362.914 64.936 360.226 63.208 356.962 63.208C360.61 60.52 363.97 58.888 367.042 58.312C370.114 57.736 372.802 57.448 375.106 57.448C383.746 57.448 390.274 59.656 394.69 64.072C399.106 68.488 401.314 75.592 401.314 85.384V207.208Z" fill="black"/>
<path fill-rule="evenodd" clip-rule="evenodd" d="M441.358 234.736C416 212.777 434 152.61 489 167.276C515.967 174.467 527 192.932 527 215.5C527 252.5 503.522 260.776 481.5 260.776C463.232 260.776 425.773 258.991 393.15 257.437C367.988 256.238 345.702 255.176 337.319 255.176C352.952 284.958 376.862 280.528 404.759 275.359C410.198 274.352 415.789 273.316 421.5 272.5C418.248 273.629 415.163 274.717 412.225 275.752C372.247 289.842 359.57 294.309 326.5 264.5C323.128 261.918 320.417 259.662 318.093 257.728C308.037 249.359 305.239 247.03 287.5 250.5C329.996 237.963 378.601 240.698 410.521 242.495C437.971 244.039 453.082 244.89 441.358 234.736ZM496.903 241.613C508.228 235.074 509.037 215.274 498.71 197.387C488.383 179.5 470.831 170.301 459.506 176.839C448.181 183.378 447.372 203.178 457.699 221.065C468.025 238.952 485.578 248.151 496.903 241.613Z" fill="black"/>
</svg>
